<svg xmlns="http://www.w3.org/2000/svg" xmlns:xlink="http://www.w3.org/1999/xlink" id="jcOUt1IZB" aria-hidden="true" role="img" class="iconify iconify--logos" width="256" height="256" viewBox="0 0 256">
  <defs id="SvgjsDefs1001"></defs>
  <g id="SvgjsG1007" featurekey="HKaMnE-0" transform="matrix(0.4385964912280702,0,0,0.4385964912280702,-18.122807017543863,-14.122807017543863)" fill="#111111">
    <path xmlns="http://www.w3.org/2000/svg" d="M240,185c2.8,0,5-2.2,5-5s-2.2-5-5-5h-15v-10h15c2.8,0,5-2.2,5-5s-2.2-5-5-5h-15v-10h14c2.8,0,5-2.2,5-5s-2.2-5-5-5h-14v-10h14c2.8,0,5-2.2,5-5s-2.2-5-5-5h-14v-10h14c2.8,0,5-2.2,5-5s-2.2-5-5-5h-14V85h14c2.8,0,5-2.2,5-5s-2.2-5-5-5h-14V60c0-2.8-2.2-5-5-5s-5,2.2-5,5v14h-10V60c0-2.8-2.2-5-5-5s-5,2.2-5,5v14h-10V60c0-2.8-2.2-5-5-5s-5,2.2-5,5v14h-10V60c0-2.8-2.2-5-5-5s-5,2.2-5,5v14h-10V60c0-2.8-2.2-5-5-5s-5,2.2-5,5v14h-10V60c0-2.8-2.2-5-5-5s-5,2.2-5,5v14H85V60c0-2.8-2.2-5-5-5s-5,2.2-5,5v15H60c-2.8,0-5,2.2-5,5s2.2,5,5,5h15v10H60c-2.8,0-5,2.2-5,5s2.2,5,5,5h15v10H60c-2.8,0-5,2.2-5,5s2.2,5,5,5h15v10H60c-2.8,0-5,2.2-5,5s2.2,5,5,5h15v10H61c-2.8,0-5,2.2-5,5s2.2,5,5,5h14v10H61c-2.8,0-5,2.2-5,5s2.2,5,5,5h14v10H61c-2.8,0-5,2.2-5,5s2.2,5,5,5h14v10H61c-2.8,0-5,2.2-5,5s2.2,5,5,5h14v14c0,2.8,2.2,5,5,5s5-2.2,5-5v-15h10v15c0,2.8,2.2,5,5,5s5-2.2,5-5v-15h10v15c0,2.8,2.2,5,5,5s5-2.2,5-5v-15h10v15c0,2.8,2.2,5,5,5s5-2.2,5-5v-15h10v15c0,2.8,2.2,5,5,5s5-2.2,5-5v-15h10v15c0,2.8,2.2,5,5,5s5-2.2,5-5v-15h10v15c0,2.8,2.2,5,5,5s5-2.2,5-5v-14h15c2.8,0,5-2.2,5-5s-2.2-5-5-5h-15v-10h15c2.8,0,5-2.2,5-5s-2.2-5-5-5h-15v-10H240z M215,214H85V84h130V214z M188,136.5v-20.2c0-2.8-2.2-5.2-5-5.2h-66c-2.8,0-5,2.5-5,5.2v46.2c0,0,0,0,0,0v19.7c0,2.8,2.2,4.8,5,4.8h66c2.8,0,5-2,5-4.8V136.5C188,136.5,188,136.5,188,136.5z M178,154.4L155.2,177h-5.9l28.7-28.4V154.4z M129.3,177l48.7-48.4v5.9L135.2,177H129.3z M122,144.6l23.3-23.6h5.9L122,150.4V144.6z M122,164.6l43.3-43.6h5.9L122,170.4V164.6z M131.2,121l-9.2,9.4V121H131.2z M169.3,177l8.7-8.4v8.4H169.3z"></path>
  </g>
</svg>



